<mxfile host="65bd71144e">
    <diagram id="fDWFhNTabK44JYBWsGop" name="Page-1">
        <mxGraphModel dx="659" dy="330" grid="1" gridSize="10" guides="1" tooltips="1" connect="1" arrows="1" fold="1" page="1" pageScale="1" pageWidth="827" pageHeight="1169" math="0" shadow="0">
            <root>
                <mxCell id="0"/>
                <mxCell id="1" parent="0"/>
                <mxCell id="8" value="" style="edgeStyle=none;html=1;" edge="1" parent="1" source="6" target="7">
                    <mxGeometry relative="1" as="geometry"/>
                </mxCell>
                <mxCell id="6" value="init" style="html=1;" vertex="1" parent="1">
                    <mxGeometry x="240" y="300" width="110" height="50" as="geometry"/>
                </mxCell>
                <mxCell id="10" value="" style="edgeStyle=none;html=1;" edge="1" parent="1" source="7" target="9">
                    <mxGeometry relative="1" as="geometry"/>
                </mxCell>
                <mxCell id="7" value="wait" style="html=1;" vertex="1" parent="1">
                    <mxGeometry x="240" y="430" width="110" height="50" as="geometry"/>
                </mxCell>
                <mxCell id="12" value="" style="edgeStyle=none;html=1;" edge="1" parent="1" source="9" target="11">
                    <mxGeometry relative="1" as="geometry"/>
                </mxCell>
                <mxCell id="9" value="run" style="html=1;" vertex="1" parent="1">
                    <mxGeometry x="240" y="560" width="110" height="50" as="geometry"/>
                </mxCell>
                <mxCell id="11" value="loos" style="html=1;" vertex="1" parent="1">
                    <mxGeometry x="240" y="690" width="110" height="50" as="geometry"/>
                </mxCell>
            </root>
        </mxGraphModel>
    </diagram>
</mxfile>